{
    "asset" : {
        "generator" : "Khronos glTF Blender I/O v1.6.16",
        "version" : "2.0"
    },
    "scene" : 0,
    "scenes" : [
        {
            "name" : "Scene",
            "nodes" : [
                0
            ]
        }
    ],
    "nodes" : [
        {
            "mesh" : 0,
            "name" : "Cube",
            "translation" : [
                0,
                1.3275669813156128,
                0
            ]
        }
    ],
    "materials" : [
        {
            "doubleSided" : true,
            "name" : "Mat1",
            "pbrMetallicRoughness" : {
                "baseColorFactor" : [
                    0.800000011920929,
                    0.800000011920929,
                    0.800000011920929,
                    1
                ],
                "metallicFactor" : 0,
                "roughnessFactor" : 0.5
            }
        },
        {
            "doubleSided" : true,
            "name" : "Mat2",
            "pbrMetallicRoughness" : {
                "baseColorFactor" : [
                    0.800000011920929,
                    0.800000011920929,
                    0.800000011920929,
                    1
                ],
                "metallicFactor" : 0,
                "roughnessFactor" : 0.5
            }
        },
        {
            "doubleSided" : true,
            "name" : "Mat3",
            "pbrMetallicRoughness" : {
                "baseColorFactor" : [
                    0.800000011920929,
                    0.800000011920929,
                    0.800000011920929,
                    1
                ],
                "metallicFactor" : 0,
                "roughnessFactor" : 0.5
            }
        },
        {
            "doubleSided" : true,
            "name" : "Mat4",
            "pbrMetallicRoughness" : {
                "baseColorFactor" : [
                    0.800000011920929,
                    0.800000011920929,
                    0.800000011920929,
                    1
                ],
                "metallicFactor" : 0,
                "roughnessFactor" : 0.5
            }
        }
    ],
    "meshes" : [
        {
            "name" : "Cube.001",
            "primitives" : [
                {
                    "attributes" : {
                        "POSITION" : 0,
                        "NORMAL" : 1,
                        "TEXCOORD_0" : 2
                    },
                    "indices" : 3,
                    "material" : 0
                },
                {
                    "attributes" : {
                        "POSITION" : 4,
                        "NORMAL" : 5,
                        "TEXCOORD_0" : 6
                    },
                    "indices" : 7,
                    "material" : 1
                },
                {
                    "attributes" : {
                        "POSITION" : 8,
                        "NORMAL" : 9,
                        "TEXCOORD_0" : 10
                    },
                    "indices" : 11,
                    "material" : 2
                },
                {
                    "attributes" : {
                        "POSITION" : 12,
                        "NORMAL" : 13,
                        "TEXCOORD_0" : 14
                    },
                    "indices" : 15,
                    "material" : 3
                }
            ]
        }
    ],
    "accessors" : [
        {
            "bufferView" : 0,
            "componentType" : 5126,
            "count" : 3502,
            "max" : [
                0.8228347301483154,
                0.9636709094047546,
                0.4961808919906616
            ],
            "min" : [
                -0.8228347301483154,
                -0.9511880874633789,
                -0.8228347301483154
            ],
            "type" : "VEC3"
        },
        {
            "bufferView" : 1,
            "componentType" : 5126,
            "count" : 3502,
            "type" : "VEC3"
        },
        {
            "bufferView" : 2,
            "componentType" : 5126,
            "count" : 3502,
            "type" : "VEC2"
        },
        {
            "bufferView" : 3,
            "componentType" : 5123,
            "count" : 3948,
            "type" : "SCALAR"
        },
        {
            "bufferView" : 4,
            "componentType" : 5126,
            "count" : 188,
            "max" : [
                0.6126447916030884,
                -0.7858342528343201,
                0.2976395785808563
            ],
            "min" : [
                -0.6126447916030884,
                -0.9250080585479736,
                -0.4932171404361725
            ],
            "type" : "VEC3"
        },
        {
            "bufferView" : 5,
            "componentType" : 5126,
            "count" : 188,
            "type" : "VEC3"
        },
        {
            "bufferView" : 6,
            "componentType" : 5126,
            "count" : 188,
            "type" : "VEC2"
        },
        {
            "bufferView" : 7,
            "componentType" : 5123,
            "count" : 192,
            "type" : "SCALAR"
        },
        {
            "bufferView" : 8,
            "componentType" : 5126,
            "count" : 788,
            "max" : [
                0.7734503746032715,
                0.9636709094047546,
                0.4891048073768616
            ],
            "min" : [
                -0.7734503746032715,
                -1.3286770582199097,
                -0.7876946926116943
            ],
            "type" : "VEC3"
        },
        {
            "bufferView" : 9,
            "componentType" : 5126,
            "count" : 788,
            "type" : "VEC3"
        },
        {
            "bufferView" : 10,
            "componentType" : 5126,
            "count" : 788,
            "type" : "VEC2"
        },
        {
            "bufferView" : 11,
            "componentType" : 5123,
            "count" : 1098,
            "type" : "SCALAR"
        },
        {
            "bufferView" : 12,
            "componentType" : 5126,
            "count" : 448,
            "max" : [
                0.27521464228630066,
                -0.3043268322944641,
                0.2665210962295532
            ],
            "min" : [
                -0.27521464228630066,
                -0.8386815786361694,
                -0.28860947489738464
            ],
            "type" : "VEC3"
        },
        {
            "bufferView" : 13,
            "componentType" : 5126,
            "count" : 448,
            "type" : "VEC3"
        },
        {
            "bufferView" : 14,
            "componentType" : 5126,
            "count" : 448,
            "type" : "VEC2"
        },
        {
            "bufferView" : 15,
            "componentType" : 5123,
            "count" : 720,
            "type" : "SCALAR"
        }
    ],
    "bufferViews" : [
        {
            "buffer" : 0,
            "byteLength" : 42024,
            "byteOffset" : 0
        },
        {
            "buffer" : 0,
            "byteLength" : 42024,
            "byteOffset" : 42024
        },
        {
            "buffer" : 0,
            "byteLength" : 28016,
            "byteOffset" : 84048
        },
        {
            "buffer" : 0,
            "byteLength" : 7896,
            "byteOffset" : 112064
        },
        {
            "buffer" : 0,
            "byteLength" : 2256,
            "byteOffset" : 119960
        },
        {
            "buffer" : 0,
            "byteLength" : 2256,
            "byteOffset" : 122216
        },
        {
            "buffer" : 0,
            "byteLength" : 1504,
            "byteOffset" : 124472
        },
        {
            "buffer" : 0,
            "byteLength" : 384,
            "byteOffset" : 125976
        },
        {
            "buffer" : 0,
            "byteLength" : 9456,
            "byteOffset" : 126360
        },
        {
            "buffer" : 0,
            "byteLength" : 9456,
            "byteOffset" : 135816
        },
        {
            "buffer" : 0,
            "byteLength" : 6304,
            "byteOffset" : 145272
        },
        {
            "buffer" : 0,
            "byteLength" : 2196,
            "byteOffset" : 151576
        },
        {
            "buffer" : 0,
            "byteLength" : 5376,
            "byteOffset" : 153772
        },
        {
            "buffer" : 0,
            "byteLength" : 5376,
            "byteOffset" : 159148
        },
        {
            "buffer" : 0,
            "byteLength" : 3584,
            "byteOffset" : 164524
        },
        {
            "buffer" : 0,
            "byteLength" : 1440,
            "byteOffset" : 168108
        }
    ],
    "buffers" : [
        {
            "byteLength" : 169548,
            "uri" : "data:application/octet-stream;base64,"
        }
    ]
}
